<?xml version="1.0" standalone="no"?><!DOCTYPE svg PUBLIC "-//W3C//DTD SVG 1.1//EN" "http://www.w3.org/Graphics/SVG/1.1/DTD/svg11.dtd"><svg t="1753385758325" class="icon" viewBox="0 0 1024 1024" version="1.1" xmlns="http://www.w3.org/2000/svg" p-id="2565" xmlns:xlink="http://www.w3.org/1999/xlink" width="200" height="200"><path d="M434.930526 53.894737H88.926316C69.308632 53.894737 53.894737 70.709895 53.894737 92.16v329.835789c0 21.342316 15.36 38.157474 34.977684 38.157474h345.896421c19.617684 0 35.031579-16.869053 35.031579-38.265263V92.16c0-21.396211-15.413895-38.265263-35.031579-38.265263h0.161684V53.894737z m-33.68421 834.290526c-118.999579-10.725053-202.967579-82.836211-207.279158-214.069895h58.745263L146.108632 526.012632 53.894737 673.953684h44.409263c2.694737 169.552842 121.748211 279.498105 274.485895 294.804211 19.563789 1.509053 57.505684 8.192 63.757473-32.175158 2.694737-30.396632-17.246316-45.541053-35.301052-48.343579l-0.10779 0.107789 0.10779-0.107789v-0.053895z m221.507368-752.370526c119.053474 10.725053 203.021474 82.836211 207.279158 214.069895h-58.691368l106.496 148.210526L970.105263 349.992421h-44.301474c-2.748632-169.552842-121.802105-279.444211-274.593684-294.80421-19.509895-1.509053-57.505684-8.192-63.757473 32.175157-2.694737 30.396632 17.300211 45.594947 35.301052 48.397474l0.10779-0.107789-0.10779 0.107789z m312.42779 426.576842v0.053895h-346.004211c-19.671579 0-34.923789 16.922947-34.923789 38.211368v331.237053c0 21.396211 15.252211 38.157474 34.977684 38.157473h345.950316c19.563789 0 34.923789-16.761263 34.923789-38.103579v-331.344842c0-21.288421-16.707368-38.211368-34.923789-38.211368z m-42.846316 308.816842c0 13.312-9.701053 23.875368-21.881263 23.875368h-216.656842c-12.234105 0-21.935158-10.563368-21.935158-23.929263v-207.494737c0-13.312 9.701053-23.929263 21.935158-23.929263h216.710736c11.425684 0 21.827368 10.617263 21.827369 23.929263v207.494737z" fill="#595959" p-id="2566"></path></svg>