<?xml version="1.0"?><!DOCTYPE svg  PUBLIC '-//W3C//DTD SVG 1.1//EN'  'http://www.w3.org/Graphics/SVG/1.1/DTD/svg11.dtd'><svg enable-background="new 0 0 91 91" height="91px" id="Layer_1" version="1.1" viewBox="0 0 91 91" width="91px" xml:space="preserve" xmlns="http://www.w3.org/2000/svg" xmlns:xlink="http://www.w3.org/1999/xlink"><g><path d="M52.01,35.552c-1.658-0.18-2.727,0.77-3.172,2.029c-3.831,0.55-7.158,5.261-7.608,8.731   c-0.819,6.29,4.134,11.999,10.442,12.156c6.17,0.151,11.876-3.887,12.157-10.354C64.136,41.068,58.623,36.278,52.01,35.552z    M50.913,52.83c-3.386-0.44-5.681-3.856-4.69-7.205c0.563-1.908,1.852-3.025,3.229-4.097c0.565,0.679,1.414,1.127,2.558,1.106   c2.989-0.061,6.318,1.662,6.286,5.044C58.26,51.565,54.337,53.276,50.913,52.83z"/><path d="M51.377,18.525c-1.444-0.043-2.43,0.662-2.959,1.639c-10.695-0.319-20.722,9.625-24.11,18.991   c-3.96,10.952,0.091,23.767,9.016,31.067c9.916,8.114,25.691,7.712,36.377,1.188c9.994-6.099,14.279-18.396,11.784-29.614   C78.409,27.971,65.102,18.938,51.377,18.525z M69.696,64.555c-7.809,6.954-22.403,8.443-31.276,2.834   c-7.857-4.97-12.315-15.107-10.345-24.233c1.172-5.434,4.333-10.135,8.382-13.865c3.422-3.156,7.409-4.88,11.548-6.623   c0.236,1.562,1.355,2.962,3.371,2.939c9.624-0.111,19.368,5.05,23.487,14.013C78.631,47.816,76.436,58.551,69.696,64.555z"/><path d="M77.723,11.353c-25.099-0.316-49.199-0.274-74.298-0.565c-3.621-0.042-3.624,5.588,0,5.625   c0.3,0.003,0.601,0.005,0.902,0.009c-0.04,1.56-0.104,3.121-0.134,4.681C4.096,26.39,3.95,31.674,3.807,36.96   C3.489,48.764,3.4,60.587,3.46,72.394c0.012,2.709,0.027,5.416,0.038,8.125c0.005,1.507,1.272,2.789,2.787,2.789   c3.208-0.002,28.729,0.142,37.631,0.21c8.668,0.065,17.336,0.152,26.004,0.13c3.723-0.011,7.642,0.346,11.341-0.196   c5.551-0.813,7.867-3.668,8.249-9.201c0.236-3.434,0.265-6.89,0.333-10.328c0.19-9.982,0.23-19.969,0.229-29.953   c-0.002-6.352,0.689-13.239-0.17-19.554C89.291,9.916,80.928,11.395,77.723,11.353z M15.267,16.516   c-0.047,1.248-0.059,2.495-0.108,3.733c-0.208,5.16-0.298,10.321-0.406,15.48c-0.24,11.643-0.494,23.275-0.535,34.919   c-0.009,2.397-0.011,4.779,0.055,7.165c-1.726-0.017-3.452-0.034-5.18-0.053c0.132-18.898-0.127-37.772-0.84-56.658   c-0.042-1.142,0.087-2.936,0.002-4.647C10.594,16.478,12.929,16.499,15.267,16.516z M84.839,41.547   c-0.015,6.716-0.055,13.431-0.158,20.144c-0.07,4.514,0.192,9.281-0.442,13.762c-0.471,3.321-4.213,2.906-6.825,2.864   c-3.854-0.059-7.71-0.117-11.563-0.178c-12.058-0.186-24.122-0.144-36.178-0.204c-3.594-0.018-6.189-0.042-9.783-0.068   c0.285-6.993,0.077-14.051-0.068-21.028c-0.24-11.582-0.304-23.184-0.768-34.758c-0.074-1.82-0.064-3.687-0.147-5.539   c12.086,0.081,23.174,0.115,35.261,0.113c7.479-0.005,14.958-0.011,22.438,0.013c2.462,0.008,7.876,0.061,8.124,0.072l0,0   c0.04,2.002,0.055,4.008,0.072,6.01C84.849,29.014,84.854,35.281,84.839,41.547z"/></g></svg>