<?xml version="1.0"?><svg xmlns="http://www.w3.org/2000/svg" xmlns:xlink="http://www.w3.org/1999/xlink" version="1.1" viewBox="0 0 24 24" style="enable-background:new 0 0 24 24;" xml:space="preserve"><style type="text/css">
	.st0{opacity:0.2;fill:none;stroke:#000000;stroke-width:0.05;stroke-miterlimit:10;}
</style><g id="Grid_system"/><g id="Layer_2"><g><path d="M21.8276,8.1719c0-1.6035-0.624-3.1104-1.7568-4.2432c-2.3394-2.3408-6.1465-2.3389-8.4849,0    C10.459,5.0557,9.84,6.572,9.8403,8.132l-4.3764,5.8299c-0.739,0.985-0.7722,2.3094-0.1652,3.3336L3.2944,19.292    c-0.3916,0.3896-0.3926,1.0225-0.0029,1.4141C3.4868,20.9023,3.7437,21,4,21c0.2554,0,0.5107-0.0967,0.7056-0.292l2.0089-2.001    c0.4678,0.275,0.9943,0.4249,1.5268,0.4249c0.6309,0,1.2646-0.1963,1.7974-0.5957l5.82-4.3694    c0.0031,0,0.006,0.0003,0.0091,0.0003c1.564,0,3.0776-0.627,4.2031-1.7529C21.2036,11.2813,21.8276,9.7744,21.8276,8.1719z     M8.8379,16.9365c-0.396,0.2959-0.957,0.2568-1.3081-0.0938l-0.3735-0.373c-0.3496-0.3496-0.3896-0.9121-0.0928-1.3076    l3.3359-4.4434c0.0952,0.2042,0.2196,0.3927,0.3373,0.585c0.0583,0.0954,0.1035,0.1979,0.1672,0.29    c0.2018,0.2914,0.4282,0.5668,0.6816,0.8204c0.2531,0.2531,0.5278,0.4794,0.8185,0.6808    c0.1064,0.0737,0.2243,0.1265,0.3351,0.1931c0.179,0.1075,0.3529,0.2243,0.5422,0.3126L8.8379,16.9365z M15.5977,12.1582    C14.6104,12.0996,13.688,11.6885,13.0005,11c-0.6885-0.6885-1.1001-1.6113-1.1597-2.6055    c-0.0523-0.7786,0.1476-1.5433,0.5352-2.2139c1.4157,2.1786,3.2653,4.0284,5.4424,5.4435    C17.1482,12.0105,16.383,12.2088,15.5977,12.1582z M19.2747,10.1721c-2.2224-1.364-4.082-3.2234-5.4469-5.4462    c0.6182-0.358,1.3065-0.5521,2.0009-0.5521c1.0239,0,2.0483,0.3896,2.8281,1.1689c0.7549,0.7549,1.1709,1.7598,1.1709,2.8291    C19.8276,8.8884,19.6256,9.569,19.2747,10.1721z"/></g></g></svg>